<svg width="112" height="39" viewBox="0 0 112 39" fill="none" xmlns="http://www.w3.org/2000/svg">
<path fill-rule="evenodd" clip-rule="evenodd" d="M10.2604 10.0584C10.2604 9.07572 11.057 8.27911 12.0397 8.27911C13.0224 8.27911 13.819 9.07572 13.819 10.0584C13.819 11.0411 13.0224 11.8377 12.0397 11.8377C11.057 11.8377 10.2604 11.0411 10.2604 10.0584ZM12.0397 5.90674C9.74682 5.90674 7.88806 7.76549 7.88806 10.0584C7.88806 12.3513 9.74682 14.21 12.0397 14.21C14.3326 14.21 16.1914 12.3513 16.1914 10.0584C16.1914 7.76549 14.3326 5.90674 12.0397 5.90674ZM23.6647 10.0584C23.6647 9.07572 24.4613 8.27911 25.444 8.27911C26.4266 8.27911 27.2233 9.07572 27.2233 10.0584C27.2233 11.0411 26.4266 11.8377 25.444 11.8377C24.4613 11.8377 23.6647 11.0411 23.6647 10.0584ZM25.444 5.90674C23.1511 5.90674 21.2923 7.76549 21.2923 10.0584C21.2923 12.3513 23.1511 14.21 25.444 14.21C27.7369 14.21 29.5956 12.3513 29.5956 10.0584C29.5956 7.76549 27.7369 5.90674 25.444 5.90674Z" fill="white"/>
<path d="M27.5264 30.7787L28.9503 29.3955C30.9519 27.4511 32.0813 24.7793 32.0813 21.9888V21.9888C32.0813 20.0871 30.5397 18.5454 28.638 18.5454H28.4102C22.8126 18.5454 16.7168 20.9973 15.1526 26.3719C15.0666 26.6671 15.0187 26.9256 15.0187 27.1348C15.0187 29.1473 16.2804 31.0531 18.6768 31.0531C21.0731 31.0531 22.3348 29.1473 22.3348 27.1348C22.3348 26.9491 22.2982 26.7246 22.2316 26.47C20.8115 21.0393 14.6441 18.5454 9.03078 18.5454H8.84569C6.94398 18.5454 5.40234 20.0871 5.40234 21.9888V21.9888C5.40234 24.7793 6.53177 27.4511 8.53337 29.3955L9.95729 30.7787" stroke="white" stroke-width="2.37237" stroke-linecap="round" stroke-linejoin="round"/>
<path d="M98.8729 26.9402C98.3588 26.9402 97.9003 26.9054 97.4974 26.836C97.1084 26.7665 96.768 26.6484 96.4762 26.4817C96.1983 26.3149 95.9691 26.0926 95.7884 25.8148C95.6078 25.523 95.4689 25.1687 95.3716 24.7519C95.2883 24.3351 95.2466 23.8349 95.2466 23.2513V13.206C95.2466 12.9698 95.2674 12.7614 95.3091 12.5808C95.3647 12.3863 95.4758 12.2334 95.6426 12.1223C95.8232 11.9972 96.108 11.9347 96.497 11.9347C96.8861 11.9347 97.1639 11.9903 97.3307 12.1015C97.5113 12.2126 97.6224 12.3654 97.6641 12.56C97.7197 12.7406 97.7475 12.949 97.7475 13.1852V23.1471C97.7475 23.4111 97.7614 23.6334 97.7892 23.814C97.8309 23.9808 97.8934 24.1197 97.9767 24.2309C98.074 24.3281 98.1921 24.3976 98.331 24.4393C98.4839 24.4809 98.6645 24.5018 98.8729 24.5018C99.0535 24.5018 99.2133 24.5226 99.3522 24.5643C99.5051 24.606 99.6232 24.7102 99.7065 24.8769C99.8038 25.0436 99.8524 25.3146 99.8524 25.6897C99.8524 26.0787 99.8038 26.3636 99.7065 26.5442C99.6232 26.7248 99.5051 26.836 99.3522 26.8776C99.1994 26.9193 99.0396 26.9402 98.8729 26.9402Z" fill="white"/>
<path d="M89.1143 26.9193C88.4335 26.9193 87.8222 26.7873 87.2803 26.5233C86.7523 26.2454 86.3008 25.8703 85.9257 25.3979C85.5644 24.9255 85.2865 24.3837 85.092 23.7723C84.9114 23.1471 84.8211 22.4802 84.8211 21.7716C84.835 21.063 84.9392 20.4031 85.1337 19.7917C85.3282 19.1665 85.6061 18.6246 85.9673 18.1661C86.3425 17.6937 86.794 17.3255 87.322 17.0616C87.85 16.7976 88.4474 16.6656 89.1143 16.6656C89.7534 16.6656 90.3509 16.7976 90.9066 17.0616C91.4763 17.3255 91.9765 17.6937 92.4072 18.1661C92.8518 18.6246 93.1991 19.1665 93.4492 19.7917C93.6993 20.4031 93.8244 21.0561 93.8244 21.7508C93.8244 22.4732 93.6993 23.154 93.4492 23.7932C93.1991 24.4184 92.8587 24.9672 92.428 25.4396C91.9973 25.8981 91.4971 26.2593 90.9275 26.5233C90.3578 26.7873 89.7534 26.9193 89.1143 26.9193ZM88.7809 24.4809C89.2671 24.4809 89.7048 24.3698 90.0938 24.1475C90.4829 23.9113 90.7885 23.5917 91.0108 23.1888C91.247 22.7859 91.3651 22.3274 91.3651 21.8133C91.3651 21.2853 91.247 20.8199 91.0108 20.4169C90.7885 20.0001 90.4829 19.6806 90.0938 19.4583C89.7048 19.2221 89.2671 19.104 88.7809 19.104C88.3085 19.104 87.8778 19.2221 87.4887 19.4583C87.0997 19.6945 86.7871 20.014 86.5509 20.4169C86.3286 20.8199 86.2174 21.2853 86.2174 21.8133C86.2174 22.3274 86.3286 22.7859 86.5509 23.1888C86.7871 23.5917 87.0997 23.9113 87.4887 24.1475C87.8778 24.3698 88.3085 24.4809 88.7809 24.4809ZM84.9253 26.9401C84.5502 26.9401 84.2723 26.8776 84.0917 26.7526C83.911 26.6414 83.7999 26.4955 83.7582 26.3149C83.7165 26.1204 83.6957 25.905 83.6957 25.6688V13.2477C83.6957 13.0115 83.7165 12.8031 83.7582 12.6224C83.7999 12.4279 83.911 12.2751 84.0917 12.1639C84.2723 12.0528 84.5502 11.9972 84.9253 11.9972C85.3143 11.9972 85.5922 12.0528 85.7589 12.1639C85.9257 12.2751 86.0299 12.4279 86.0715 12.6224C86.1132 12.817 86.1341 13.0254 86.1341 13.2477V26.0857C86.0785 26.3913 85.9604 26.6067 85.7798 26.7317C85.613 26.8707 85.3282 26.9401 84.9253 26.9401Z" fill="white"/>
<path d="M68.4097 26.9193C68.0346 26.9193 67.7567 26.8637 67.5761 26.7526C67.4093 26.6414 67.3051 26.4886 67.2635 26.2941C67.2218 26.0996 67.2009 25.8912 67.2009 25.6689V17.8744C67.2009 17.6521 67.2218 17.4506 67.2635 17.27C67.3051 17.0894 67.4163 16.9435 67.5969 16.8323C67.7775 16.7212 68.0624 16.6656 68.4514 16.6656C68.8543 16.6656 69.1461 16.7489 69.3267 16.9157C69.5212 17.0824 69.6185 17.3464 69.6185 17.7076L69.4309 18.2912C69.5004 18.1383 69.6185 17.9716 69.7852 17.791C69.9519 17.6104 70.1534 17.4298 70.3896 17.2491C70.6397 17.0685 70.9176 16.9226 71.2232 16.8115C71.5289 16.7003 71.8484 16.6447 72.1819 16.6447C72.6404 16.6447 73.0572 16.7212 73.4324 16.874C73.8214 17.0268 74.1618 17.2491 74.4536 17.5409C74.7592 17.8327 75.0232 18.187 75.2455 18.6038C75.4817 18.2425 75.7457 17.916 76.0375 17.6243C76.3292 17.3186 76.6696 17.0824 77.0587 16.9157C77.4477 16.7351 77.8854 16.6447 78.3716 16.6447C79.1775 16.6447 79.8514 16.8462 80.3932 17.2491C80.949 17.6521 81.3658 18.2287 81.6437 18.9789C81.9354 19.7153 82.0813 20.5976 82.0813 21.6257V25.6689C82.0813 25.905 82.0535 26.1204 81.998 26.3149C81.9563 26.4955 81.8451 26.6414 81.6645 26.7526C81.4978 26.8637 81.2199 26.9193 80.8309 26.9193C80.4418 26.9193 80.157 26.8568 79.9764 26.7317C79.7958 26.6206 79.6846 26.4747 79.6429 26.2941C79.6013 26.0996 79.5804 25.8842 79.5804 25.648V21.6049C79.5804 21.0908 79.5179 20.6462 79.3929 20.2711C79.2678 19.8959 79.0802 19.6042 78.8301 19.3957C78.594 19.1873 78.2813 19.0831 77.8923 19.0831C77.4755 19.0831 77.1142 19.1873 76.8086 19.3957C76.5168 19.5903 76.2876 19.8751 76.1208 20.2502C75.9541 20.6254 75.8707 21.0839 75.8707 21.6257V25.6897C75.8707 25.9259 75.836 26.1482 75.7665 26.3566C75.6971 26.5511 75.5581 26.697 75.3497 26.7943C75.1552 26.9054 74.8704 26.9471 74.4952 26.9193C74.1479 26.9054 73.8909 26.8359 73.7241 26.7109C73.5713 26.5859 73.474 26.433 73.4324 26.2524C73.4046 26.0579 73.3907 25.8564 73.3907 25.648V21.6049C73.3907 21.0908 73.3281 20.6462 73.2031 20.2711C73.0781 19.882 72.8905 19.5903 72.6404 19.3957C72.4042 19.1873 72.0846 19.0831 71.6817 19.0831C71.251 19.0831 70.8828 19.1943 70.5772 19.4166C70.2854 19.6389 70.0631 19.9376 69.9102 20.3127C69.7574 20.6879 69.681 21.1186 69.681 21.6049V25.6897C69.681 25.912 69.6532 26.1204 69.5976 26.3149C69.5559 26.5094 69.4448 26.6553 69.2642 26.7526C69.0974 26.8637 68.8126 26.9193 68.4097 26.9193Z" fill="white"/>
<path d="M61.3434 27.0652C60.4403 27.0652 59.6484 26.9194 58.9676 26.6276C58.3007 26.3358 57.738 25.9398 57.2795 25.4397C56.8349 24.9256 56.4945 24.3559 56.2583 23.7307C56.036 23.0916 55.9248 22.4316 55.9248 21.7508C55.9248 20.7505 56.1541 19.8612 56.6126 19.0832C57.0711 18.3051 57.7032 17.6938 58.5091 17.2492C59.3288 16.8046 60.2667 16.5823 61.3226 16.5823C62.0729 16.5823 62.7328 16.7004 63.3025 16.9366C63.8721 17.1728 64.3445 17.4854 64.7197 17.8744C65.1087 18.2495 65.4005 18.6664 65.595 19.1249C65.8034 19.5834 65.9076 20.028 65.9076 20.4587C65.9076 21.1951 65.727 21.73 65.3657 22.0634C65.0184 22.3969 64.5807 22.5636 64.0528 22.5636H58.5508C58.5647 23.036 58.7105 23.4459 58.9884 23.7932C59.2802 24.1406 59.6414 24.4115 60.0721 24.606C60.5167 24.7866 60.9683 24.877 61.4268 24.877C61.7741 24.877 62.0798 24.8561 62.3438 24.8144C62.6217 24.7727 62.8579 24.7241 63.0524 24.6685C63.2469 24.5991 63.4136 24.5296 63.5526 24.4601C63.7054 24.3907 63.8443 24.3281 63.9694 24.2726C64.0944 24.217 64.2125 24.1823 64.3237 24.1684C64.4765 24.1545 64.6294 24.1892 64.7822 24.2726C64.935 24.3559 65.0601 24.5018 65.1573 24.7102C65.2407 24.8492 65.2963 24.9812 65.324 25.1062C65.3657 25.2174 65.3866 25.3285 65.3866 25.4397C65.3866 25.7175 65.2198 25.9815 64.8864 26.2316C64.5529 26.4678 64.0805 26.6623 63.4692 26.8152C62.8718 26.9819 62.1632 27.0652 61.3434 27.0652ZM58.5508 20.6756H62.8231C63.0593 20.6756 63.2732 20.6841 63.3982 20.6147C63.4797 20.5694 63.5855 20.5164 63.5526 20.3253C63.5062 20.0564 63.4257 19.8488 63.2608 19.625C63.0663 19.3611 62.8023 19.1596 62.4688 19.0207C62.1354 18.8678 61.7464 18.7914 61.3018 18.7914C60.7877 18.7914 60.3222 18.8956 59.9054 19.104C59.4886 19.2985 59.1551 19.5695 58.9051 19.9168C58.6689 20.2642 58.6661 20.2828 58.5508 20.6756Z" fill="white"/>
<path d="M105.436 27.0652C104.533 27.0652 103.741 26.9194 103.06 26.6276C102.393 26.3358 101.83 25.9398 101.372 25.4397C100.927 24.9256 100.587 24.3559 100.351 23.7307C100.128 23.0916 100.017 22.4316 100.017 21.7508C100.017 20.7505 100.246 19.8612 100.705 19.0832C101.163 18.3051 101.796 17.6938 102.601 17.2492C103.421 16.8046 104.359 16.5823 105.415 16.5823C106.165 16.5823 106.825 16.7004 107.395 16.9366C107.965 17.1728 108.437 17.4854 108.812 17.8744C109.201 18.2495 109.493 18.6664 109.687 19.1249C109.896 19.5834 110 20.028 110 20.4587C110 21.1951 109.819 21.73 109.458 22.0634C109.111 22.3969 108.673 22.5636 108.145 22.5636H102.643C102.657 23.036 102.803 23.4459 103.081 23.7932C103.373 24.1406 103.734 24.4115 104.165 24.606C104.609 24.7866 105.061 24.877 105.519 24.877C105.867 24.877 106.172 24.8561 106.436 24.8144C106.714 24.7727 106.95 24.7241 107.145 24.6685C107.339 24.5991 107.506 24.5296 107.645 24.4601C107.798 24.3907 107.937 24.3281 108.062 24.2726C108.187 24.217 108.305 24.1823 108.416 24.1684C108.569 24.1545 108.722 24.1892 108.875 24.2726C109.027 24.3559 109.152 24.5018 109.25 24.7102C109.333 24.8492 109.389 24.9812 109.416 25.1062C109.458 25.2174 109.479 25.3285 109.479 25.4397C109.479 25.7175 109.312 25.9815 108.979 26.2316C108.645 26.4678 108.173 26.6623 107.562 26.8152C106.964 26.9819 106.256 27.0652 105.436 27.0652ZM102.643 20.6756H106.916C107.152 20.6756 107.366 20.6841 107.491 20.6147C107.572 20.5694 107.678 20.5164 107.645 20.3253C107.599 20.0564 107.518 19.8488 107.353 19.625C107.159 19.3611 106.895 19.1596 106.561 19.0207C106.228 18.8678 105.839 18.7914 105.394 18.7914C104.88 18.7914 104.415 18.8956 103.998 19.104C103.581 19.2985 103.248 19.5695 102.997 19.9168C102.761 20.2642 102.758 20.2828 102.643 20.6756Z" fill="white"/>
<path d="M41.0349 26.9193C40.6598 26.9193 40.3819 26.8637 40.2013 26.7526C40.0346 26.6414 39.9304 26.4886 39.8887 26.2941C39.847 26.0996 39.8262 25.8912 39.8262 25.6689V17.8744C39.8262 17.6521 39.847 17.4506 39.8887 17.27C39.9304 17.0894 40.0415 16.9435 40.2221 16.8323C40.4028 16.7212 40.6876 16.6656 41.0766 16.6656C41.4795 16.6656 41.7713 16.7489 41.9519 16.9157C42.1465 17.0824 42.2437 17.3464 42.2437 17.7076L42.0561 18.2912C42.1256 18.1383 42.2437 17.9716 42.4104 17.791C42.5772 17.6104 42.7786 17.4298 43.0148 17.2491C43.2649 17.0685 43.5428 16.9226 43.8485 16.8115C44.1541 16.7003 44.4737 16.6447 44.8071 16.6447C45.2656 16.6447 45.6825 16.7212 46.0576 16.874C46.4466 17.0268 46.787 17.2491 47.0788 17.5409C47.3845 17.8327 47.6485 18.187 47.8708 18.6038C48.107 18.2425 48.3709 17.916 48.6627 17.6243C48.9545 17.3186 49.2949 17.0824 49.6839 16.9157C50.0729 16.7351 50.5106 16.6447 50.9969 16.6447C51.8027 16.6447 52.4766 16.8462 53.0185 17.2491C53.5742 17.6521 53.991 18.2287 54.2689 18.9789C54.5607 19.7153 54.7066 20.5976 54.7066 21.6257V25.6689C54.7066 25.905 54.6788 26.1204 54.6232 26.3149C54.5815 26.4955 54.4704 26.6414 54.2898 26.7526C54.123 26.8637 53.8451 26.9193 53.4561 26.9193C53.0671 26.9193 52.7823 26.8568 52.6016 26.7317C52.421 26.6206 52.3099 26.4747 52.2682 26.2941C52.2265 26.0996 52.2057 25.8842 52.2057 25.648V21.6049C52.2057 21.0908 52.1431 20.6462 52.0181 20.2711C51.893 19.8959 51.7055 19.6042 51.4554 19.3957C51.2192 19.1873 50.9066 19.0831 50.5175 19.0831C50.1007 19.0831 49.7395 19.1873 49.4338 19.3957C49.1421 19.5903 48.9128 19.8751 48.7461 20.2502C48.5793 20.6254 48.496 21.0839 48.496 21.6257V25.6897C48.496 25.9259 48.4612 26.1482 48.3918 26.3566C48.3223 26.5511 48.1834 26.697 47.975 26.7943C47.7804 26.9054 47.4956 26.9471 47.1205 26.9193C46.7731 26.9054 46.5161 26.8359 46.3494 26.7109C46.1965 26.5859 46.0993 26.433 46.0576 26.2524C46.0298 26.0579 46.0159 25.8564 46.0159 25.648V21.6049C46.0159 21.0908 45.9534 20.6462 45.8283 20.2711C45.7033 19.882 45.5157 19.5903 45.2656 19.3957C45.0294 19.1873 44.7099 19.0831 44.307 19.0831C43.8763 19.0831 43.5081 19.1943 43.2024 19.4166C42.9106 19.6389 42.6883 19.9376 42.5355 20.3127C42.3827 20.6879 42.3062 21.1186 42.3062 21.6049V25.6897C42.3062 25.912 42.2785 26.1204 42.2229 26.3149C42.1812 26.5094 42.07 26.6553 41.8894 26.7526C41.7227 26.8637 41.4379 26.9193 41.0349 26.9193Z" fill="white"/>
</svg>
