<svg width="30" height="28" viewBox="0 0 30 28" fill="none" xmlns="http://www.w3.org/2000/svg">
<path fill-rule="evenodd" clip-rule="evenodd" d="M6.26104 5.0579C6.26104 4.07523 7.05765 3.27862 8.04032 3.27862C9.02299 3.27862 9.8196 4.07523 9.8196 5.0579C9.8196 6.04057 9.02299 6.83718 8.04032 6.83718C7.05765 6.83718 6.26104 6.04057 6.26104 5.0579ZM8.04032 0.90625C5.74743 0.90625 3.88867 2.76501 3.88867 5.0579C3.88867 7.35079 5.74743 9.20955 8.04032 9.20955C10.3332 9.20955 12.192 7.35079 12.192 5.0579C12.192 2.76501 10.3332 0.90625 8.04032 0.90625ZM19.6653 5.0579C19.6653 4.07523 20.462 3.27862 21.4446 3.27862C22.4273 3.27862 23.2239 4.07523 23.2239 5.0579C23.2239 6.04057 22.4273 6.83718 21.4446 6.83718C20.462 6.83718 19.6653 6.04057 19.6653 5.0579ZM21.4446 0.90625C19.1517 0.90625 17.293 2.76501 17.293 5.0579C17.293 7.35079 19.1517 9.20955 21.4446 9.20955C23.7375 9.20955 25.5963 7.35079 25.5963 5.0579C25.5963 2.76501 23.7375 0.90625 21.4446 0.90625Z" fill="white"/>
<path d="M23.5264 25.7782L24.9503 24.395C26.9519 22.4506 28.0813 19.7788 28.0813 16.9883V16.9883C28.0813 15.0866 26.5397 13.5449 24.638 13.5449H24.4102C18.8126 13.5449 12.7168 15.9968 11.1526 21.3714C11.0666 21.6666 11.0187 21.9251 11.0187 22.1343C11.0187 24.1468 12.2804 26.0526 14.6768 26.0526C17.0731 26.0526 18.3348 24.1468 18.3348 22.1343C18.3348 21.9486 18.2982 21.7241 18.2316 21.4695C16.8115 16.0388 10.6441 13.5449 5.03078 13.5449H4.84569C2.94398 13.5449 1.40234 15.0866 1.40234 16.9883V16.9883C1.40234 19.7788 2.53177 22.4506 4.53337 24.395L5.95729 25.7782" stroke="white" stroke-width="2.37237" stroke-linecap="round" stroke-linejoin="round"/>
</svg>
